<!DOCTYPE svg PUBLIC "-//W3C//DTD SVG 1.1//EN" "http://www.w3.org/Graphics/SVG/1.1/DTD/svg11.dtd">
<!-- Uploaded to: SVG Repo, www.svgrepo.com, Transformed by: SVG Repo Mixer Tools -->
<svg height="800px" width="800px" version="1.1" id="Layer_1" xmlns="http://www.w3.org/2000/svg" xmlns:xlink="http://www.w3.org/1999/xlink" viewBox="0 0 463.944 463.944" xml:space="preserve" fill="#1f1f1f">
<g id="SVGRepo_bgCarrier" stroke-width="0"/>
<g id="SVGRepo_tracerCarrier" stroke-linecap="round" stroke-linejoin="round"/>
<g id="SVGRepo_iconCarrier"> <g> <path style="fill:#1f1f1f;" d="M353.676,386.824L423.972,297V123.752c0-6.616-5.384-12-12-12c-6.616,0-12,5.384-12,12v100 c0,2.12-0.848,4.152-2.344,5.656l-11.712,11.712c12.696,3.736,22.056,15.368,22.056,29.264c0,8.176-3.184,15.864-8.968,21.656 l-49.376,49.376l-11.312-11.312l49.376-49.368c2.76-2.768,4.28-6.448,4.28-10.352c0-8.064-6.56-14.632-14.624-14.632 c-3.856,0-7.616,1.56-10.344,4.28l-1.376,1.376l-69.656,69.656v132.88h56v-72.192C351.972,389.968,352.572,388.232,353.676,386.824 z"/> <path style="fill:#1f1f1f;" d="M96.94,260.04c-2.728-2.72-6.496-4.288-10.344-4.288c-8.064,0-14.624,6.56-14.624,14.632 c0,3.904,1.52,7.584,4.28,10.344l49.376,49.368l-11.312,11.312L64.94,292.04c-5.784-5.792-8.968-13.48-8.968-21.656 c0-13.896,9.36-25.528,22.056-29.256l-11.712-11.712c-1.504-1.504-2.344-3.544-2.344-5.664v-100c0-6.616-5.384-12-12-12 s-12,5.384-12,12v173.24l70.296,89.832c1.104,1.408,1.704,3.144,1.704,4.928v72.192h56v-132.88L96.94,260.04z"/> </g> <g> <path style="fill:#E51f1f1fE8E8;" d="M185.172,133.08l-42.512-24.288c-4.264,10.848-6.688,22.616-6.688,34.96 c0,27.656,11.824,52.552,30.608,70.08l32.408-32.408L185.172,133.08z"/> <path style="fill:#E51f1f1fE8E8;" d="M223.972,99.224V48.16c-32,2.616-58.696,20.52-74.2,46.264l42.104,24.056L223.972,99.224z"/> </g> <polygon style="fill:#1f1f1f;" points="214.004,175.944 249.94,175.944 262.596,131.552 231.972,113.128 201.348,131.576 "/> <g> <path style="fill:#E51f1f1fE8E8;" d="M211.284,191.944l-32.096,32.008c15.16,10.024,33.288,15.856,52.784,15.856 s37.624-5.808,52.784-15.832l-32.096-32.032H211.284z"/> <path style="fill:#E51f1f1fE8E8;" d="M321.284,108.792l-42.512,24.288l-13.816,48.352l32.408,32.408 c18.784-17.536,30.608-42.424,30.608-70.088C327.972,131.408,325.548,119.64,321.284,108.792z"/> <path style="fill:#E51f1f1fE8E8;" d="M314.172,94.424c-15.504-25.744-42.2-43.648-74.2-46.264v51.064l32.104,19.256L314.172,94.424z"/> </g> <g> <path style="fill:#00a86b;" d="M109.62,247.944h0.592l-30.24-27.504v-96.688c0-15.44-12.56-28-28-28s-28,12.56-28,28v176 c0,1.792,0.6,3.52,1.704,4.928l70.296,89.832v69.432h8h8v-72.192c0-1.792-0.6-3.52-1.704-4.928L39.972,297V123.752 c0-6.616,5.384-12,12-12s12,5.384,12,12v100c0,2.12,0.84,4.152,2.344,5.656l11.712,11.712 c-12.696,3.736-22.056,15.368-22.056,29.264c0,8.176,3.184,15.864,8.968,21.656l49.376,49.368l11.312-11.312l-49.376-49.368 c-2.76-2.76-4.28-6.44-4.28-10.344c0-8.064,6.56-14.632,14.624-14.632c3.856,0,7.616,1.56,10.344,4.288l71.032,71.024v132.88h8h8 V327.752c0-2.12-0.848-5.232-2.344-6.736L109.62,247.944z"/> <path style="fill:#00a86b;" d="M411.972,95.752c-15.44,0-28,12.56-28,28v96.688L354.9,247.944h-0.288l-72.144,73.08 c-1.504,1.496-2.496,4.608-2.496,6.728v136.192h8h8v-132.88l69.656-69.656l1.376-1.376c2.728-2.72,6.488-4.28,10.344-4.28 c8.064,0,14.624,6.56,14.624,14.632c0,3.904-1.52,7.584-4.28,10.344l-49.376,49.368l11.312,11.312l49.376-49.376 c5.784-5.784,8.968-13.472,8.968-21.648c0-13.896-9.36-25.528-22.056-29.256l11.712-11.712c1.496-1.504,2.344-3.544,2.344-5.664 v-100c0-6.616,5.384-12,12-12c6.616,0,12,5.384,12,12v173.24l-70.296,89.832c-1.104,1.408-1.704,3.144-1.704,4.928v72.192h8h8 v-69.432l70.296-89.824c1.104-1.408,1.704-3.144,1.704-4.936v-176C439.972,108.32,427.412,95.752,411.972,95.752z"/> <path style="fill:#00a86b;" d="M343.972,143.752c0-61.76-50.24-112-112-112s-112,50.24-112,112s50.24,112,112,112 C293.732,255.752,343.972,205.512,343.972,143.752z M239.972,48.16c32,2.616,58.696,20.52,74.2,46.264l-42.104,24.056 l-32.096-19.256V48.16z M262.596,131.552l-12.656,44.392h-35.936l-12.656-44.392l30.624-18.376L262.596,131.552z M223.972,48.16 v51.064l-32.104,19.256l-42.104-24.056C165.276,68.68,191.972,50.776,223.972,48.16z M135.972,143.752 c0-12.344,2.424-24.112,6.688-34.968l42.512,24.288l13.816,48.352l-32.408,32.408C147.796,196.304,135.972,171.416,135.972,143.752 z M231.972,239.752c-19.496,0-37.624-5.784-52.784-15.808l32.096-32h41.376l32.104,32.008 C269.596,233.976,251.468,239.752,231.972,239.752z M264.956,181.432l13.816-48.352l42.512-24.288 c4.264,10.848,6.688,22.616,6.688,34.96c0,27.656-11.824,52.552-30.608,70.08L264.956,181.432z"/> <path style="fill:#00a86b;" d="M224.404,15.976L223.468,0c-5.744,0.336-11.512,1.016-17.152,2.032l2.832,15.752 C214.156,16.88,219.292,16.272,224.404,15.976z"/> <path style="fill:#00a86b;" d="M290.868,12.328c-5.256-2.36-10.696-4.424-16.176-6.12l-4.752,15.28 c4.864,1.504,9.696,3.336,14.36,5.432L290.868,12.328z"/> <path style="fill:#00a86b;" d="M344.9,54.456c-3.568-4.504-7.448-8.848-11.512-12.88l-11.272,11.352 c3.624,3.592,7.072,7.448,10.24,11.464L344.9,54.456z"/> <path style="fill:#00a86b;" d="M320.428,30.152c-4.52-3.536-9.32-6.832-14.232-9.8l-8.264,13.704 c4.376,2.632,8.632,5.56,12.656,8.704L320.428,30.152z"/> <path style="fill:#00a86b;" d="M194.22,21.416L189.5,6.128c-5.512,1.704-10.96,3.76-16.192,6.096l6.544,14.6 C184.492,24.752,189.324,22.928,194.22,21.416z"/> <path style="fill:#00a86b;" d="M257.9,2.088c-5.632-1.024-11.408-1.72-17.16-2.064l-0.968,15.968 c5.12,0.312,10.256,0.928,15.264,1.84L257.9,2.088z"/> <path style="fill:#00a86b;" d="M141.996,52.76l-11.248-11.368c-4.088,4.04-7.968,8.368-11.536,12.864l12.528,9.952 C134.908,60.208,138.364,56.36,141.996,52.76z"/> <path style="fill:#00a86b;" d="M166.22,33.928l-8.232-13.712c-4.928,2.96-9.728,6.248-14.256,9.768l9.816,12.632 C157.58,39.488,161.844,36.56,166.22,33.928z"/> <path style="fill:#00a86b;" d="M284.396,260.52c-4.672,2.112-9.528,3.952-14.432,5.48l4.752,15.272 c5.52-1.72,10.992-3.792,16.256-6.168L284.396,260.52z"/> <path style="fill:#00a86b;" d="M205.948,285.392c5.664,1.04,11.472,1.744,17.256,2.096l0.968-15.968 c-5.152-0.312-10.312-0.944-15.336-1.856L205.948,285.392z"/> <path style="fill:#00a86b;" d="M172.828,275.04c5.264,2.376,10.728,4.456,16.232,6.184l4.784-15.264 c-4.896-1.536-9.752-3.384-14.424-5.496L172.828,275.04z"/> <path style="fill:#00a86b;" d="M239.636,271.536l0.952,15.968c5.784-0.336,11.584-1.04,17.256-2.072l-2.872-15.744 C249.932,270.608,244.78,271.224,239.636,271.536z"/> </g> </g>
</svg>